<svg width="173" height="25" viewBox="0 0 173 25" fill="none" xmlns="http://www.w3.org/2000/svg">
<path d="M30.9 20C30.5133 20 30.2 19.88 29.96 19.64C29.72 19.4 29.6 19.0867 29.6 18.7V6H35.52C36.7067 6 37.66 6.28667 38.38 6.86C39.1133 7.42 39.48 8.16667 39.48 9.1V10.16C39.48 10.6533 39.3667 11.1267 39.14 11.58C38.9133 12.02 38.6 12.3733 38.2 12.64V12.66C38.8533 12.8333 39.3733 13.1733 39.76 13.68C40.16 14.1733 40.36 14.7533 40.36 15.42V16.38C40.36 17.4733 40.0133 18.3533 39.32 19.02C38.6267 19.6733 37.6867 20 36.5 20H30.9ZM35.92 12.32C36.5467 12.32 37.0467 12.1267 37.42 11.74C37.8067 11.34 38 10.8133 38 10.16V9.1C38 8.56667 37.7667 8.14 37.3 7.82C36.8467 7.48667 36.2533 7.32 35.52 7.32H31.08V12.32H35.92ZM36.3 18.68C37.1 18.68 37.7267 18.4733 38.18 18.06C38.6467 17.6333 38.88 17.0733 38.88 16.38V15.42C38.88 14.86 38.68 14.4133 38.28 14.08C37.88 13.7333 37.3533 13.56 36.7 13.56H31.08V18.68H36.3ZM44.8422 20.16C43.8689 20.16 43.0889 19.9067 42.5022 19.4C41.9289 18.8933 41.6422 18.2133 41.6422 17.36V16.72C41.6422 15.88 41.9422 15.2067 42.5422 14.7C43.1422 14.1933 43.9355 13.94 44.9222 13.94H46.2022C46.6422 13.94 47.0955 14.0067 47.5622 14.14C48.0289 14.2733 48.4289 14.4533 48.7622 14.68V13.02C48.7622 12.46 48.5889 12.0067 48.2422 11.66C47.8955 11.3 47.4355 11.12 46.8622 11.12H45.2622C44.6889 11.12 44.2289 11.2533 43.8822 11.52C43.5355 11.7867 43.3622 12.14 43.3622 12.58H41.9222C41.9222 11.7667 42.2289 11.1133 42.8422 10.62C43.4555 10.1133 44.2622 9.86 45.2622 9.86H46.8622C47.8489 9.86 48.6422 10.1533 49.2422 10.74C49.8555 11.3133 50.1622 12.0733 50.1622 13.02V20H48.8022V18.6C48.4955 19.08 48.0889 19.46 47.5822 19.74C47.0889 20.02 46.5755 20.16 46.0422 20.16H44.8422ZM46.0822 18.9C46.7089 18.9 47.2689 18.7067 47.7622 18.32C48.2555 17.9333 48.5889 17.42 48.7622 16.78V16.04C48.4955 15.7867 48.1222 15.5867 47.6422 15.44C47.1755 15.28 46.6955 15.2 46.2022 15.2H44.9222C44.3755 15.2 43.9289 15.34 43.5822 15.62C43.2489 15.9 43.0822 16.2667 43.0822 16.72V17.36C43.0822 17.8267 43.2422 18.2 43.5622 18.48C43.8822 18.76 44.3089 18.9 44.8422 18.9H46.0822ZM55.5155 20.16C54.4221 20.16 53.5421 19.8333 52.8755 19.18C52.2088 18.5133 51.8755 17.6333 51.8755 16.54V13.68C51.8755 12.5333 52.2088 11.6133 52.8755 10.92C53.5421 10.2133 54.4155 9.86 55.4955 9.86H57.1355C58.1621 9.86 58.9888 10.1467 59.6155 10.72C60.2421 11.2933 60.5555 12.0467 60.5555 12.98H59.1555C59.1555 12.4333 58.9688 11.9933 58.5955 11.66C58.2355 11.3133 57.7488 11.14 57.1355 11.14H55.4955C54.8421 11.14 54.3155 11.3733 53.9155 11.84C53.5155 12.3067 53.3155 12.92 53.3155 13.68V16.54C53.3155 17.2467 53.5155 17.8133 53.9155 18.24C54.3288 18.6667 54.8621 18.88 55.5155 18.88H57.1555C57.7821 18.88 58.2821 18.66 58.6555 18.22C59.0421 17.78 59.2355 17.1933 59.2355 16.46H60.6355C60.6355 17.5667 60.3155 18.46 59.6755 19.14C59.0355 19.82 58.1955 20.16 57.1555 20.16H55.5155ZM68.9381 20L65.0181 15.28L63.6381 16.66V20H62.1981V6H63.6381V14.9L68.5781 10.02H70.3381L66.0181 14.3L70.6581 20H68.9381ZM79.9283 20C78.8749 20 78.1149 19.7733 77.6483 19.32C77.1949 18.8667 76.9683 18.12 76.9683 17.08V11.3H75.2083V10.02H76.9683V7H78.4083V10.02H81.0083V11.3H78.4083V17.08C78.4083 17.6667 78.5216 18.0867 78.7483 18.34C78.9883 18.5933 79.3816 18.72 79.9283 18.72H81.0083V20H79.9283ZM85.8525 20.16C84.7325 20.16 83.8325 19.8133 83.1525 19.12C82.4725 18.4267 82.1325 17.5133 82.1325 16.38V13.64C82.1325 12.5067 82.4725 11.5933 83.1525 10.9C83.8458 10.2067 84.7592 9.86 85.8925 9.86H87.5325C88.6658 9.86 89.5725 10.2067 90.2525 10.9C90.9458 11.5933 91.2925 12.5067 91.2925 13.64V16.38C91.2925 17.5133 90.9458 18.4267 90.2525 19.12C89.5592 19.8133 88.6392 20.16 87.4925 20.16H85.8525ZM87.4925 18.88C88.2125 18.88 88.7858 18.6533 89.2125 18.2C89.6392 17.7333 89.8525 17.1267 89.8525 16.38V13.64C89.8525 12.8933 89.6392 12.2933 89.2125 11.84C88.7858 11.3733 88.2258 11.14 87.5325 11.14H85.8925C85.1992 11.14 84.6392 11.3733 84.2125 11.84C83.7858 12.2933 83.5725 12.8933 83.5725 13.64V16.38C83.5725 17.14 83.7792 17.7467 84.1925 18.2C84.6058 18.6533 85.1592 18.88 85.8525 18.88H87.4925ZM97.6141 6H104.394C105.434 6 106.267 6.29333 106.894 6.88C107.534 7.46667 107.854 8.24 107.854 9.2V11.26C107.854 12.2867 107.514 13.12 106.834 13.76C106.154 14.3867 105.261 14.7 104.154 14.7H99.0941V20H97.6141V6ZM104.114 13.38C104.794 13.38 105.341 13.1867 105.754 12.8C106.167 12.4 106.374 11.8733 106.374 11.22V9.16C106.374 8.61333 106.187 8.17333 105.814 7.84C105.454 7.49333 104.967 7.32 104.354 7.32H99.0941V13.38H104.114ZM109.215 10.02H110.615V11.56C110.881 11.0933 111.281 10.7133 111.815 10.42C112.361 10.1267 112.928 9.98 113.515 9.98H114.395V11.28H113.515C112.661 11.28 111.968 11.5533 111.435 12.1C110.915 12.6333 110.655 13.3467 110.655 14.24V20H109.215V10.02ZM118.531 20.16C117.411 20.16 116.511 19.8133 115.831 19.12C115.151 18.4267 114.811 17.5133 114.811 16.38V13.64C114.811 12.5067 115.151 11.5933 115.831 10.9C116.525 10.2067 117.438 9.86 118.571 9.86H120.211C121.345 9.86 122.251 10.2067 122.931 10.9C123.625 11.5933 123.971 12.5067 123.971 13.64V16.38C123.971 17.5133 123.625 18.4267 122.931 19.12C122.238 19.8133 121.318 20.16 120.171 20.16H118.531ZM120.171 18.88C120.891 18.88 121.465 18.6533 121.891 18.2C122.318 17.7333 122.531 17.1267 122.531 16.38V13.64C122.531 12.8933 122.318 12.2933 121.891 11.84C121.465 11.3733 120.905 11.14 120.211 11.14H118.571C117.878 11.14 117.318 11.3733 116.891 11.84C116.465 12.2933 116.251 12.8933 116.251 13.64V16.38C116.251 17.14 116.458 17.7467 116.871 18.2C117.285 18.6533 117.838 18.88 118.531 18.88H120.171ZM128.918 20.16C128.238 20.16 127.631 20 127.098 19.68C126.564 19.36 126.151 18.9133 125.858 18.34C125.564 17.7667 125.418 17.1 125.418 16.34V13.94C125.418 13.14 125.571 12.4333 125.878 11.82C126.184 11.1933 126.618 10.7133 127.178 10.38C127.738 10.0333 128.378 9.86 129.098 9.86H130.578C131.031 9.86 131.464 9.96667 131.878 10.18C132.304 10.3933 132.644 10.6867 132.898 11.06V6H134.338V20H132.938V18.52C132.631 19.0133 132.231 19.4133 131.738 19.72C131.244 20.0133 130.764 20.16 130.298 20.16H128.918ZM130.258 18.88C130.684 18.88 131.098 18.7467 131.498 18.48C131.898 18.2 132.224 17.84 132.478 17.4C132.731 16.96 132.871 16.5067 132.898 16.04V13.52C132.804 12.8133 132.538 12.24 132.098 11.8C131.671 11.36 131.151 11.14 130.538 11.14H129.138C128.458 11.14 127.904 11.4 127.478 11.92C127.064 12.4267 126.858 13.1 126.858 13.94V16.34C126.858 17.0867 127.051 17.7 127.438 18.18C127.838 18.6467 128.344 18.88 128.958 18.88H130.258ZM139.56 20.16C138.64 20.16 137.893 19.8467 137.32 19.22C136.747 18.5933 136.46 17.7733 136.46 16.76V10.02H137.9V16.8C137.9 17.4267 138.053 17.9333 138.36 18.32C138.667 18.6933 139.067 18.88 139.56 18.88H140.8C141.413 18.88 141.98 18.6333 142.5 18.14C143.02 17.6467 143.353 17.0267 143.5 16.28V10.02H144.94V20H143.54V18.48C143.233 18.96 142.827 19.36 142.32 19.68C141.813 20 141.32 20.16 140.84 20.16H139.56ZM150.426 20.16C149.333 20.16 148.453 19.8333 147.786 19.18C147.12 18.5133 146.786 17.6333 146.786 16.54V13.68C146.786 12.5333 147.12 11.6133 147.786 10.92C148.453 10.2133 149.326 9.86 150.406 9.86H152.046C153.073 9.86 153.9 10.1467 154.526 10.72C155.153 11.2933 155.466 12.0467 155.466 12.98H154.066C154.066 12.4333 153.88 11.9933 153.506 11.66C153.146 11.3133 152.66 11.14 152.046 11.14H150.406C149.753 11.14 149.226 11.3733 148.826 11.84C148.426 12.3067 148.226 12.92 148.226 13.68V16.54C148.226 17.2467 148.426 17.8133 148.826 18.24C149.24 18.6667 149.773 18.88 150.426 18.88H152.066C152.693 18.88 153.193 18.66 153.566 18.22C153.953 17.78 154.146 17.1933 154.146 16.46H155.546C155.546 17.5667 155.226 18.46 154.586 19.14C153.946 19.82 153.106 20.16 152.066 20.16H150.426ZM160.951 20C159.898 20 159.138 19.7733 158.671 19.32C158.218 18.8667 157.991 18.12 157.991 17.08V11.3H156.231V10.02H157.991V7H159.431V10.02H162.031V11.3H159.431V17.08C159.431 17.6667 159.544 18.0867 159.771 18.34C160.011 18.5933 160.404 18.72 160.951 18.72H162.031V20H160.951ZM166.59 20.16C165.577 20.16 164.764 19.8733 164.15 19.3C163.537 18.7267 163.23 17.9733 163.23 17.04H164.63C164.63 17.6 164.81 18.0533 165.17 18.4C165.53 18.7467 166.004 18.92 166.59 18.92H168.33C168.904 18.92 169.37 18.8067 169.73 18.58C170.09 18.34 170.27 18.0333 170.27 17.66V16.98C170.27 16.7267 170.17 16.5067 169.97 16.32C169.77 16.12 169.51 15.9867 169.19 15.92L165.73 15.32C165.037 15.2 164.477 14.94 164.05 14.54C163.637 14.1267 163.43 13.6467 163.43 13.1V12.44C163.43 11.6667 163.724 11.0467 164.31 10.58C164.897 10.1 165.67 9.86 166.63 9.86H168.35C169.284 9.86 170.037 10.1267 170.61 10.66C171.184 11.18 171.47 11.8733 171.47 12.74H170.07C170.057 12.2467 169.89 11.8533 169.57 11.56C169.264 11.2533 168.857 11.1 168.35 11.1H166.63C166.097 11.1 165.67 11.2267 165.35 11.48C165.03 11.72 164.87 12.04 164.87 12.44V13.02C164.87 13.2733 164.977 13.5 165.19 13.7C165.417 13.9 165.704 14.0267 166.05 14.08L169.49 14.68C170.157 14.8 170.69 15.06 171.09 15.46C171.504 15.86 171.71 16.34 171.71 16.9V17.7C171.71 18.4333 171.397 19.0267 170.77 19.48C170.157 19.9333 169.344 20.16 168.33 20.16H166.59Z" fill="#4B505E"/>
<path d="M14 8L9 13L14 18" stroke="#2C3459" stroke-width="2" stroke-linecap="round" stroke-linejoin="round"/>
</svg>
