<svg width="17" height="18" viewBox="0 0 17 18" fill="none" xmlns="http://www.w3.org/2000/svg">
<path d="M5.85744 17.0957C6.75168 17.0957 7.4766 16.3708 7.4766 15.4766C7.4766 14.5823 6.75168 13.8574 5.85744 13.8574C4.9632 13.8574 4.23828 14.5823 4.23828 15.4766C4.23828 16.3708 4.9632 17.0957 5.85744 17.0957Z" stroke="white" stroke-miterlimit="10"/>
<path d="M11.9292 17.0957C12.8235 17.0957 13.5484 16.3708 13.5484 15.4766C13.5484 14.5823 12.8235 13.8574 11.9292 13.8574C11.035 13.8574 10.3101 14.5823 10.3101 15.4766C10.3101 16.3708 11.035 17.0957 11.9292 17.0957Z" stroke="white" stroke-miterlimit="10"/>
<path d="M1 0.904175H2.03222C2.39653 0.904175 2.76084 1.04585 3.04419 1.30897L3.22635 1.47088C3.55018 1.77447 3.75257 2.1995 3.77281 2.62453L4.35976 10.2953C4.38 10.5382 4.52168 11.2061 4.64311 11.4287C4.88599 11.8942 5.31102 12.2383 5.85748 12.2383H13.3461" stroke="white" stroke-miterlimit="10" stroke-linecap="round" stroke-linejoin="round"/>
<path d="M3.42871 1.71368H14.9652C14.9652 1.71368 16.1796 1.71368 15.9772 3.13045L14.9045 8.57488C14.7021 9.16183 14.5807 9.28326 14.3985 9.46542C14.2366 9.6071 13.7711 9.80949 12.9413 9.80949H4.44069" stroke="white" stroke-miterlimit="10" stroke-linecap="round" stroke-linejoin="round"/>
</svg>
