<svg width="24" height="26" viewBox="0 0 24 26" fill="none" xmlns="http://www.w3.org/2000/svg">
<path d="M8.11723 25.3073C9.47349 25.3073 10.573 24.2078 10.573 22.8516C10.573 21.4953 9.47349 20.3958 8.11723 20.3958C6.76097 20.3958 5.6615 21.4953 5.6615 22.8516C5.6615 24.2078 6.76097 25.3073 8.11723 25.3073Z" stroke="black" stroke-miterlimit="10"/>
<path d="M17.3262 25.3073C18.6825 25.3073 19.7819 24.2078 19.7819 22.8516C19.7819 21.4953 18.6825 20.3958 17.3262 20.3958C15.97 20.3958 14.8705 21.4953 14.8705 22.8516C14.8705 24.2078 15.97 25.3073 17.3262 25.3073Z" stroke="black" stroke-miterlimit="10"/>
<path d="M0.75 0.75H2.31553C2.86807 0.75 3.4206 0.964876 3.85036 1.36393L4.12663 1.60951C4.61777 2.06995 4.92474 2.71458 4.95544 3.35921L5.84564 14.9932C5.87633 15.3616 6.09121 16.3746 6.27539 16.7122C6.64375 17.4183 7.28838 17.9401 8.11719 17.9401H19.4749" stroke="black" stroke-miterlimit="10" stroke-linecap="round" stroke-linejoin="round"/>
<path d="M4.43359 1.97787H21.9307C21.9307 1.97787 23.7725 1.97787 23.4655 4.12664L21.8386 12.384C21.5316 13.2742 21.3474 13.4584 21.0712 13.7347C20.8256 13.9496 20.1196 14.2565 18.861 14.2565H5.96842" stroke="black" stroke-miterlimit="10" stroke-linecap="round" stroke-linejoin="round"/>
</svg>
