<svg width="158" height="35" viewBox="0 0 158 35" fill="none" xmlns="http://www.w3.org/2000/svg">
<path d="M35.1258 13.989C33.2523 5.64566 25.988 -0.114856 17.4628 0.00173802C12.9314 0.0629991 8.96529 1.6301 5.6809 4.74453C1.19106 8.98736 -0.650729 14.2479 0.202974 20.376C0.912417 25.4271 3.50515 29.3695 7.61359 32.3417C8.1847 32.7547 8.58586 32.6302 8.87636 31.9899C9.94349 29.6383 11.0699 27.3143 12.0382 24.9271C12.4651 23.8778 12.9986 23.3995 14.1428 23.5794C14.7792 23.6782 15.54 23.4173 16.0617 23.6801C16.6229 23.9608 16.696 24.8065 16.9806 25.4053C18.0774 27.7174 19.1425 30.0454 20.2215 32.3674C20.517 33.151 20.8697 33.9119 21.2768 34.6439C21.4349 35.0747 21.7965 35.0213 22.1167 34.9561C22.4784 34.8659 22.8347 34.755 23.1838 34.6241C24.8916 34.1181 26.4971 33.3154 27.9266 32.2527C27.9945 32.2182 28.0605 32.1799 28.1242 32.1381C33.7227 28.3202 36.6415 20.7357 35.1258 13.989ZM27.2606 16.2359H27.0788C25.5927 16.2359 25.5967 16.2359 25.8496 14.7933C25.9465 14.2301 26.0473 13.6669 26.1085 13.1017C26.1461 12.7836 26.2864 12.6512 26.6085 12.6749C26.8634 12.6946 27.1203 12.6749 27.3752 12.6749C28.3515 12.6749 28.3495 12.6749 28.5036 13.6037C28.6202 14.323 28.7269 15.0443 28.8732 15.7557C28.9483 16.1134 28.9028 16.2695 28.4957 16.2399C28.0886 16.2102 27.6717 16.2359 27.2606 16.2359ZM30.9719 27.4704C30.1162 28.6561 28.7309 30.0533 28.0452 30.4347C27.9029 30.2845 27.9839 30.0987 27.9839 29.9327C27.976 26.0858 27.972 22.2382 27.972 18.3899C27.972 18.2062 27.9543 18.0263 27.9404 17.8445L27.9128 17.8267C27.9198 17.8167 27.9284 17.8081 27.9384 17.801C28.0037 17.5283 28.221 17.5837 28.4127 17.5837C28.8257 17.5837 29.2407 17.5995 29.6538 17.5837C30.215 17.5619 30.4739 17.2497 30.381 16.6924C30.1175 15.1194 29.85 13.5477 29.5787 11.9773C29.5719 11.8881 29.5476 11.8011 29.507 11.7214C29.4664 11.6416 29.4103 11.5708 29.3421 11.5129C29.2739 11.4549 29.1949 11.4112 29.1097 11.384C29.0244 11.3569 28.9346 11.347 28.8455 11.3548C27.7803 11.3548 26.7172 11.3548 25.652 11.3548C25.2983 11.3548 25.0315 11.4931 24.9722 11.8706C24.7114 13.5227 24.4406 15.1747 24.2094 16.8308C24.1462 17.2971 24.4367 17.5659 24.9189 17.5777C25.2927 17.6005 25.6675 17.6005 26.0413 17.5777C26.4899 17.5362 26.646 17.6647 26.6342 18.1489C26.6342 18.7832 26.6342 19.4176 26.6223 20.0519C26.6223 22.5122 26.6223 24.9725 26.6223 27.4309C26.6223 28.3142 26.6223 29.1996 26.6223 30.0829C26.6223 30.4215 26.6223 30.7594 26.6223 31.0967C26.639 31.2683 26.5963 31.4403 26.5013 31.5842C26.4064 31.7281 26.2649 31.835 26.1006 31.8871C25.4939 32.1579 24.9149 32.5077 24.3359 32.8238H24.3122C24.2546 32.8786 24.1861 32.9206 24.1112 32.9471C24.0363 32.9737 23.9566 32.9842 23.8774 32.978C23.8395 33.0012 23.8032 33.027 23.7687 33.0551C23.6008 33.1045 23.4288 33.146 23.2628 33.2033C22.2748 33.5412 22.2748 33.5412 21.7748 32.6934C21.7497 32.5176 21.6818 32.3507 21.5772 32.2073C21.5614 32.1816 21.5455 32.1539 21.5278 32.1282C21.4372 31.8294 21.3104 31.5427 21.1503 31.2745C21.1253 31.2337 21.0976 31.1922 21.0673 31.15C20.0437 28.8893 19.0207 26.6299 17.9983 24.3718C17.9331 24.2275 17.864 24.0853 17.8007 23.9449C17.6703 23.69 17.7513 23.5833 18.0319 23.5912C18.3125 23.5991 18.6248 23.6031 18.9212 23.5912C19.0071 23.5954 19.0929 23.5817 19.1732 23.5508C19.2535 23.52 19.3264 23.4727 19.3874 23.4121C19.4484 23.3515 19.4961 23.2788 19.5275 23.1987C19.5588 23.1186 19.5731 23.0329 19.5694 22.947C19.5951 22.5399 19.3718 22.3245 18.9923 22.2573C18.8355 22.2405 18.6775 22.2365 18.52 22.2454C16.1486 22.2454 13.7772 22.2336 11.4157 22.2454C10.9553 22.2454 10.809 22.1288 10.8229 21.6526C10.8486 19.2654 10.8387 16.8782 10.8387 14.491C10.8421 14.2932 10.8355 14.0953 10.8189 13.8981C10.8143 13.8184 10.7935 13.7405 10.758 13.669C10.7225 13.5974 10.6728 13.5339 10.6121 13.482C10.5514 13.4301 10.4808 13.3911 10.4047 13.3672C10.3285 13.3432 10.2482 13.335 10.1688 13.3428C10.0891 13.3377 10.0093 13.3488 9.93402 13.3753C9.85875 13.4018 9.78962 13.4433 9.73075 13.4972C9.67189 13.551 9.62451 13.6163 9.59145 13.6889C9.55839 13.7615 9.54034 13.8401 9.53837 13.9199C9.52652 14.0582 9.52257 14.1965 9.52257 14.3349C9.52257 17.058 9.52257 19.7812 9.52257 22.5043C9.52257 23.4726 9.63323 23.5952 10.6253 23.5734C11.1015 23.5734 11.2181 23.6505 10.9948 24.1169C10.0344 26.1905 9.09044 28.2714 8.16296 30.3596C7.98511 30.7548 7.87642 30.8655 7.47328 30.5315C4.2304 27.84 2.18704 24.4489 1.54479 20.2792C0.783967 15.4158 1.98152 11.0248 5.14338 7.26414C8.88229 2.83556 13.7338 0.835679 19.4884 1.42853C24.7647 1.97395 28.891 4.61411 31.6951 9.13557C35.2997 14.9257 34.9835 21.953 30.9719 27.4704Z" fill="#C56D68"/>
<path d="M48.836 28C48.388 28 48.0333 27.8693 47.772 27.608C47.5293 27.3467 47.408 26.9827 47.408 26.516V8.4H60.036V9.744H48.948V17.304H59.196V18.648H48.948V26.628H60.036V28H48.836ZM65.6017 28C64.3883 28 63.5203 27.72 62.9977 27.16C62.475 26.6 62.2137 25.6667 62.2137 24.36V8.4H63.7257V24.36C63.7257 25.1813 63.8657 25.7693 64.1457 26.124C64.4443 26.4787 64.9297 26.656 65.6017 26.656H66.4977V28H65.6017ZM69.0944 11.648C68.7211 11.648 68.4131 11.536 68.1704 11.312C67.9464 11.088 67.8344 10.7893 67.8344 10.416C67.8344 10.0427 67.9464 9.744 68.1704 9.52C68.4131 9.27733 68.7211 9.156 69.0944 9.156C69.4678 9.156 69.7664 9.27733 69.9904 9.52C70.2144 9.744 70.3264 10.0427 70.3264 10.416C70.3264 10.7707 70.2144 11.0693 69.9904 11.312C69.7664 11.536 69.4678 11.648 69.0944 11.648ZM68.3384 14.028H69.8224V28H68.3384V14.028ZM78.5565 28C77.1378 28 76.1205 27.7013 75.5045 27.104C74.8885 26.488 74.5805 25.48 74.5805 24.08V15.372H72.1165V14.028H74.5805V9.8H76.0645V14.028H79.7045V15.372H76.0645V24.08C76.0645 24.9947 76.2511 25.6573 76.6245 26.068C76.9978 26.46 77.6231 26.656 78.5005 26.656H79.7045V28H78.5565ZM85.987 28.224C84.5123 28.224 83.3176 27.776 82.403 26.88C81.507 25.984 81.059 24.7987 81.059 23.324V18.984C81.059 17.4347 81.507 16.184 82.403 15.232C83.3176 14.28 84.5123 13.804 85.987 13.804H88.283C89.7016 13.804 90.8403 14.2707 91.699 15.204C92.5763 16.1187 93.015 17.3413 93.015 18.872V21.224H82.571V23.324C82.571 24.388 82.879 25.2467 83.495 25.9C84.1296 26.5533 84.9603 26.88 85.987 26.88H88.115C89.123 26.88 89.935 26.5907 90.551 26.012C91.1856 25.4147 91.503 24.64 91.503 23.688H92.959C92.959 25.0507 92.511 26.152 91.615 26.992C90.7376 27.8133 89.571 28.224 88.115 28.224H85.987ZM91.531 19.936V18.872C91.531 17.752 91.2323 16.856 90.635 16.184C90.0376 15.4933 89.2536 15.148 88.283 15.148H85.987C84.9603 15.148 84.1296 15.5027 83.495 16.212C82.879 16.9213 82.571 17.8453 82.571 18.984V19.936H91.531Z" fill="#4B505E"/>
<path d="M105.471 28.224C103.809 28.224 102.484 27.7293 101.495 26.74C100.524 25.7507 100.039 24.4067 100.039 22.708H101.551C101.551 23.9773 101.905 24.9853 102.615 25.732C103.324 26.46 104.285 26.824 105.499 26.824H108.635C109.811 26.824 110.753 26.5533 111.463 26.012C112.191 25.4707 112.555 24.7613 112.555 23.884V21.98C112.555 21.2707 112.293 20.664 111.771 20.16C111.248 19.656 110.52 19.3293 109.587 19.18L104.575 18.34C103.231 18.116 102.176 17.6307 101.411 16.884C100.664 16.1373 100.291 15.204 100.291 14.084V12.46C100.291 11.172 100.776 10.136 101.747 9.352C102.717 8.568 103.996 8.176 105.583 8.176H108.747C110.259 8.176 111.472 8.63333 112.387 9.548C113.32 10.4627 113.787 11.6667 113.787 13.16H112.275C112.275 12.0773 111.948 11.2093 111.295 10.556C110.66 9.884 109.811 9.548 108.747 9.548H105.583C104.444 9.548 103.529 9.81867 102.839 10.36C102.167 10.8827 101.831 11.5827 101.831 12.46V14.084C101.831 14.8307 102.083 15.456 102.587 15.96C103.091 16.464 103.8 16.7907 104.715 16.94L109.699 17.808C111.08 18.0507 112.153 18.536 112.919 19.264C113.703 19.992 114.095 20.8973 114.095 21.98V23.884C114.095 25.1907 113.6 26.2453 112.611 27.048C111.621 27.832 110.305 28.224 108.663 28.224H105.471ZM121.602 28C120.183 28 119.166 27.7013 118.55 27.104C117.934 26.488 117.626 25.48 117.626 24.08V15.372H115.162V14.028H117.626V9.8H119.11V14.028H122.75V15.372H119.11V24.08C119.11 24.9947 119.297 25.6573 119.67 26.068C120.043 26.46 120.669 26.656 121.546 26.656H122.75V28H121.602ZM129.166 33.684C128.027 33.684 127.085 33.376 126.338 32.76C125.591 32.1627 125.171 31.3693 125.078 30.38H126.562C126.637 30.9773 126.907 31.4533 127.374 31.808C127.859 32.1813 128.457 32.368 129.166 32.368H131.378C132.405 32.368 133.207 32.0227 133.786 31.332C134.383 30.6413 134.682 29.6987 134.682 28.504V25.396C134.178 26.18 133.562 26.8147 132.834 27.3C132.125 27.7667 131.425 28 130.734 28H128.914C127.682 28 126.683 27.5893 125.918 26.768C125.153 25.928 124.77 24.8267 124.77 23.464V14.028H126.282V23.492C126.282 24.4253 126.525 25.1907 127.01 25.788C127.495 26.3667 128.13 26.656 128.914 26.656H130.678C131.499 26.656 132.302 26.292 133.086 25.564C133.889 24.8173 134.421 23.9307 134.682 22.904V14.028H136.166V28.504C136.166 30.1093 135.737 31.3693 134.878 32.284C134.019 33.2173 132.853 33.684 131.378 33.684H129.166ZM142.478 28C141.265 28 140.397 27.72 139.874 27.16C139.351 26.6 139.09 25.6667 139.09 24.36V8.4H140.602V24.36C140.602 25.1813 140.742 25.7693 141.022 26.124C141.321 26.4787 141.806 26.656 142.478 26.656H143.374V28H142.478ZM149.079 28.224C147.604 28.224 146.41 27.776 145.495 26.88C144.599 25.984 144.151 24.7987 144.151 23.324V18.984C144.151 17.4347 144.599 16.184 145.495 15.232C146.41 14.28 147.604 13.804 149.079 13.804H151.375C152.794 13.804 153.932 14.2707 154.791 15.204C155.668 16.1187 156.107 17.3413 156.107 18.872V21.224H145.663V23.324C145.663 24.388 145.971 25.2467 146.587 25.9C147.222 26.5533 148.052 26.88 149.079 26.88H151.207C152.215 26.88 153.027 26.5907 153.643 26.012C154.278 25.4147 154.595 24.64 154.595 23.688H156.051C156.051 25.0507 155.603 26.152 154.707 26.992C153.83 27.8133 152.663 28.224 151.207 28.224H149.079ZM154.623 19.936V18.872C154.623 17.752 154.324 16.856 153.727 16.184C153.13 15.4933 152.346 15.148 151.375 15.148H149.079C148.052 15.148 147.222 15.5027 146.587 16.212C145.971 16.9213 145.663 17.8453 145.663 18.984V19.936H154.623Z" fill="#C56D68"/>
</svg>
